# xmcd CD database file generated by OrangeCD 5.2
#
# Track frame offsets:
#	150
#	19792
#	37399
#	60282
#	79388
#	103503
#	120722
#	150732
#	170161
#	194746
#	210123
#	227446
#	254776
#	274393
#	286377
#	313076
#	335755
#
# Disc length: 4765 seconds
#
# Revision: 0
# Processed by: cddbd v1.5.2PL0 Copyright (c) Steve Scherf et al.
# Submitted via: OrangeCD 5.2
#
DISCID=03129b11
DTITLE=B.B. King - Vintage B.B. King
DYEAR=2006
DGENRE=Blues - B B King
TTITLE0=Drivin' Wheel    With Glenn Frey
TTITLE1=Tired Of Your Jive   With Billy F. Gibbons
TTITLE2=The Thrill Is Gone  With Eric Clapton
TTITLE3=Into The Night
TTITLE4=Playing With My Friends   With Robert Cray
TTITLE5=Sweet Little Angel (Live At The Regal)
TTITLE6=Rock Me Baby   With Eric Clapton
TTITLE7=Please Send Me Someone To Love   With Mick Hucknall
TTITLE8=The Thrill Is Gone
TTITLE9=In The Midnight Hour
TTITLE10=There Must Be A Better World Somswhere
TTITLE11=There's Something On Your Mind   With Etta James
TTITLE12=Six Silver Strings
TTITLE13=Choo Choo Ch' Boogie
TTITLE14=Since I Fell For You
TTITLE15=The Thrill Is Gone   With Tracy Chapman
TTITLE16=Darlin' You Know I Love You
EXTD=
EXTT0=
EXTT1=
EXTT2=
EXTT3=
EXTT4=
EXTT5=
EXTT6=
EXTT7=
EXTT8=
EXTT9=
EXTT10=
EXTT11=
EXTT12=
EXTT13=
EXTT14=
EXTT15=
EXTT16=
PLAYORDER=
